<svg width="117" height="117" viewBox="0 0 117 117" fill="none" xmlns="http://www.w3.org/2000/svg">
<rect width="116.5" height="116.5" rx="18.7041" fill="#D80000"/>
<path d="M91.1186 80.0667C91.1186 82.0251 89.5295 83.6136 87.5721 83.6136C85.6142 83.6136 84.0283 82.0251 84.0283 80.0667C84.0283 78.109 85.6142 76.5233 87.5721 76.5233C89.5295 76.5233 91.1186 78.109 91.1186 80.0667Z" fill="white"/>
<path d="M48.1658 81.7046C44.3923 77.6726 47.327 70.2497 47.9599 63.6744C47.119 64.5238 38.7272 84.2486 31.1752 83.3966C24.463 81.2809 25.3017 73.6421 27.3992 67.9163H38.306C34.9501 77.2471 39.5648 73.4303 42.7123 67.4927C49.0056 54.5546 49.4256 53.4948 56.3484 33.9792C60.3336 33.9792 64.318 33.9792 68.306 33.9792C64.7402 45.0098 61.3821 55.827 59.916 67.2801C59.916 67.7038 60.1244 68.1281 60.5445 67.9163C63.0599 67.4927 76.9062 36.103 78.164 33.9792C81.7315 33.9792 85.9273 33.9792 89.7004 33.9792C89.7004 35.0398 76.9062 70.4611 79.0041 73.8539C80.0541 75.7626 81.5235 72.1586 82.7801 70.6722L84.6699 72.5823C80.8939 76.826 76.4898 84.4586 70.1955 83.1877C69.3557 82.9751 68.5166 82.5537 67.8888 81.9153C61.3825 76.1895 73.131 55.4885 71.874 54.1299C71.483 54.1739 71.0918 55.2261 70.4035 56.6743C66.8359 64.0991 58.659 83.6113 51.9418 83.6113C50.895 83.6113 48.7943 82.5533 48.1658 81.7046Z" fill="white"/>
</svg>
